# Blender v2.91.2 OBJ File: ''
# www.blender.org
mtllib Red_Triangular_Pyramid.mtl
o mesh0
v 0.030003 -0.017320 0.100000
v -0.030003 -0.017320 0.100000
v -0.000000 0.034640 0.100000
vn 0.0000 0.0000 -1.0000
usemtl Red
s 1
f 1//1 2//1 3//1
o mesh1
v -0.000000 -0.000000 0.151960
v -0.000000 0.034640 0.100000
v -0.030003 -0.017320 0.100000
vn -0.8216 0.4744 0.3163
usemtl Red
s 1
f 4//2 5//2 6//2
o mesh2
v -0.000000 -0.000000 0.151960
v -0.030003 -0.017320 0.100000
v 0.030003 -0.017320 0.100000
vn 0.0000 -0.9487 0.3162
usemtl Red
s 1
f 7//3 8//3 9//3
o mesh3
v -0.000000 -0.000000 0.151960
v 0.030003 -0.017320 0.100000
v -0.000000 0.034640 0.100000
vn 0.8216 0.4744 0.3163
usemtl Red
s 1
f 10//4 11//4 12//4
